<svg xmlns="http://www.w3.org/2000/svg" viewBox="0 0 1440 320" preserveAspectRatio="none">
  <path fill="#101623" fill-opacity="1" d="M0,32L21.8,42.7C43.6,53,87,75,131,112C174.5,149,218,203,262,240C305.5,277,349,299,393,288C436.4,277,480,235,524,197.3C567.3,160,611,128,655,133.3C698.2,139,742,181,785,197.3C829.1,213,873,203,916,165.3C960,128,1004,64,1047,42.7C1090.9,21,1135,43,1178,64C1221.8,85,1265,107,1309,117.3C1352.7,128,1396,128,1418,128L1440,128L1440,320L1418.2,320C1396.4,320,1353,320,1309,320C1265.5,320,1222,320,1178,320C1134.5,320,1091,320,1047,320C1003.6,320,960,320,916,320C872.7,320,829,320,785,320C741.8,320,698,320,655,320C610.9,320,567,320,524,320C480,320,436,320,393,320C349.1,320,305,320,262,320C218.2,320,175,320,131,320C87.3,320,44,320,22,320L0,320Z"></path>
</svg> 